<svg version="1.1" preserveAspectRatio="none" xmlns="http://www.w3.org/2000/svg" width="500" height="500" viewBox="0 0 500 500"><rect width="100%" height="100%" fill="#FFFFFF" fill-opacity="1"/><svg viewBox="134.527 166.6895 466.8405 60" width="333" height="42.79834333139477" x="83.5px" y="228.6008px" xmlns="http://www.w3.org/2000/svg" xmlns:xlink="http://www.w3.org/1999/xlink" preserveAspectRatio="none"><defs></defs><style>.companyName {fill:#182145;fill-opacity:1;}.icon1 {fill:#182145;fill-opacity:1;}.icon2 {fill:#E35B34;fill-opacity:1;}.icon3 {fill:#E3D454;fill-opacity:1;}.icon3-str {stroke:#E3D454;stroke-opacity:1;}</style><g opacity="1" transform="rotate(0 134.527 166.6895)">
<svg width="60" height="60" x="134.527" y="166.6895" version="1.1" preserveAspectRatio="none" viewBox="20 20 160 160">
  <g transform="matrix(1 0 0 1 0 0)"><g><path d="M20 42.19V180h42.044V42.19H20z" data-color="1" class="icon1"></path><path d="M180 62.044V20h-42.044v42.044H180z" data-color="1" class="icon1"></path><path d="M180 148.997V180h-28.184L20 48.184V20h31.003L180 148.997Z" data-color="1" class="icon1"></path></g></g>
</svg>
</g><g opacity="1" transform="rotate(0 214.527 166.6895)">
<svg width="386.8405" height="60" x="214.527" y="166.6895" version="1.1" preserveAspectRatio="none" viewBox="1.56 -28.48 225.11999999999998 34.92">
  <g transform="matrix(1 0 0 1 0 0)" class="companyName"><path id="id-D6z1nYkh8" d="M30.72-0.44L33.60 3Q32.24 4.68 30.30 5.56Q28.36 6.44 26.04 6.44L26.04 6.44Q22.92 6.44 20.40 5.10Q17.88 3.76 14.64 0.36L14.64 0.36Q10.84-0.12 7.86-2.08Q4.88-4.04 3.22-7.14Q1.56-10.24 1.56-14L1.56-14Q1.56-18.12 3.54-21.42Q5.52-24.72 9.02-26.60Q12.52-28.48 16.88-28.48L16.88-28.48Q21.24-28.48 24.72-26.60Q28.20-24.72 30.20-21.42Q32.20-18.12 32.20-14L32.20-14Q32.20-9.12 29.46-5.44Q26.72-1.76 22.20-0.32L22.20-0.32Q23.20 0.72 24.14 1.18Q25.08 1.64 26.16 1.64L26.16 1.64Q28.76 1.64 30.72-0.44L30.72-0.44ZM8.12-14Q8.12-11.40 9.26-9.36Q10.40-7.32 12.40-6.18Q14.40-5.04 16.88-5.04L16.88-5.04Q19.36-5.04 21.36-6.18Q23.36-7.32 24.50-9.36Q25.64-11.40 25.64-14L25.64-14Q25.64-16.60 24.50-18.64Q23.36-20.68 21.36-21.82Q19.36-22.96 16.88-22.96L16.88-22.96Q14.40-22.96 12.40-21.82Q10.40-20.68 9.26-18.64Q8.12-16.60 8.12-14L8.12-14Z M49.52 0.48Q43.52 0.48 40.18-2.84Q36.84-6.16 36.84-12.32L36.84-12.32L36.84-28L43.32-28L43.32-12.56Q43.32-5.04 49.56-5.04L49.56-5.04Q52.60-5.04 54.20-6.86Q55.80-8.68 55.80-12.56L55.80-12.56L55.80-28L62.20-28L62.20-12.32Q62.20-6.16 58.86-2.84Q55.52 0.48 49.52 0.48L49.52 0.48Z M68.60 0L68.60-28L75.08-28L75.08 0L68.60 0Z M95.12 0.48Q90.84 0.48 87.38-1.38Q83.92-3.24 81.94-6.54Q79.96-9.84 79.96-14L79.96-14Q79.96-18.16 81.94-21.46Q83.92-24.76 87.38-26.62Q90.84-28.48 95.16-28.48L95.16-28.48Q98.80-28.48 101.74-27.20Q104.68-25.92 106.68-23.52L106.68-23.52L102.52-19.68Q99.68-22.96 95.48-22.96L95.48-22.96Q92.88-22.96 90.84-21.82Q88.80-20.68 87.66-18.64Q86.52-16.60 86.52-14L86.52-14Q86.52-11.40 87.66-9.36Q88.80-7.32 90.84-6.18Q92.88-5.04 95.48-5.04L95.48-5.04Q99.68-5.04 102.52-8.36L102.52-8.36L106.68-4.52Q104.68-2.08 101.72-0.80Q98.76 0.48 95.12 0.48L95.12 0.48Z M130.20 0L121.24-11L117.48-7.08L117.48 0L111.04 0L111.04-28L117.48-28L117.48-14.92L129.88-28L137.08-28L125.48-15.52L137.76 0L130.20 0Z M161.20-14.56Q163.60-13.80 164.96-12.02Q166.32-10.24 166.32-7.64L166.32-7.64Q166.32-3.96 163.46-1.98Q160.60 0 155.12 0L155.12 0L140.64 0L140.64-28L154.32-28Q159.44-28 162.18-26.04Q164.92-24.08 164.92-20.72L164.92-20.72Q164.92-18.68 163.94-17.08Q162.96-15.48 161.20-14.56L161.20-14.56ZM153.52-23.12L147.08-23.12L147.08-16.52L153.52-16.52Q155.92-16.52 157.16-17.36Q158.40-18.20 158.40-19.84L158.40-19.84Q158.40-21.48 157.16-22.30Q155.92-23.12 153.52-23.12L153.52-23.12ZM154.64-4.88Q157.20-4.88 158.50-5.72Q159.80-6.56 159.80-8.32L159.80-8.32Q159.80-11.80 154.64-11.80L154.64-11.80L147.08-11.80L147.08-4.88L154.64-4.88Z M183.68 0.48Q177.68 0.48 174.34-2.84Q171-6.16 171-12.32L171-12.32L171-28L177.48-28L177.48-12.56Q177.48-5.04 183.72-5.04L183.72-5.04Q186.76-5.04 188.36-6.86Q189.96-8.68 189.96-12.56L189.96-12.56L189.96-28L196.36-28L196.36-12.32Q196.36-6.16 193.02-2.84Q189.68 0.48 183.68 0.48L183.68 0.48Z M226.68-28L215.80-9.92L215.80 0L209.32 0L209.32-10L198.48-28L205.36-28L212.84-15.56L220.32-28L226.68-28Z"/></g>
</svg>
</g></svg></svg>